<svg xmlns="http://www.w3.org/2000/svg" viewBox="0 0 800 500">
  <!-- Title -->
  <text x="400" y="40" font-family="Arial, sans-serif" font-size="24" font-weight="bold" text-anchor="middle">GPU-FPX Exception Report</text>
  
  <!-- FP64 Section -->
  <rect x="150" y="80" width="500" height="120" fill="#f5f5f5" rx="5" ry="5" stroke="#ddd" stroke-width="1"/>
  <text x="400" y="105" font-family="Arial, sans-serif" font-size="18" font-weight="bold" text-anchor="middle" fill="#333">FP64 Operations</text>
  
  <text x="220" y="135" font-family="Arial, sans-serif" font-size="14" text-anchor="start">Total NaN found:</text>
  <text x="580" y="135" font-family="Arial, sans-serif" font-size="14" text-anchor="end" fill="#22aa22" font-weight="bold">0</text>
  
  <text x="220" y="160" font-family="Arial, sans-serif" font-size="14" text-anchor="start">Total INF found:</text>
  <text x="580" y="160" font-family="Arial, sans-serif" font-size="14" text-anchor="end" fill="#22aa22" font-weight="bold">0</text>
  
  <text x="220" y="185" font-family="Arial, sans-serif" font-size="14" text-anchor="start">Total underflow (subnormal):</text>
  <text x="580" y="185" font-family="Arial, sans-serif" font-size="14" text-anchor="end" fill="#22aa22" font-weight="bold">0</text>
  
  <!-- FP32 Section -->
  <rect x="150" y="220" width="500" height="120" fill="#f5f5f5" rx="5" ry="5" stroke="#ddd" stroke-width="1"/>
  <text x="400" y="245" font-family="Arial, sans-serif" font-size="18" font-weight="bold" text-anchor="middle" fill="#333">FP32 Operations</text>
  
  <text x="220" y="275" font-family="Arial, sans-serif" font-size="14" text-anchor="start">Total NaN found:</text>
  <rect x="540" y="260" width="50" height="20" rx="4" ry="4" fill="#e74c3c"/>
  <text x="565" y="275" font-family="Arial, sans-serif" font-size="14" text-anchor="middle" fill="white" font-weight="bold">1</text>
  
  <text x="220" y="300" font-family="Arial, sans-serif" font-size="14" text-anchor="start">Total INF found:</text>
  <text x="580" y="300" font-family="Arial, sans-serif" font-size="14" text-anchor="end" fill="#22aa22" font-weight="bold">0</text>
  
  <text x="220" y="325" font-family="Arial, sans-serif" font-size="14" text-anchor="start">Total underflow (subnormal):</text>
  <text x="580" y="325" font-family="Arial, sans-serif" font-size="14" text-anchor="end" fill="#22aa22" font-weight="bold">0</text>
  
  <!-- Other Stats Section -->
  <rect x="150" y="360" width="500" height="100" fill="#f5f5f5" rx="5" ry="5" stroke="#ddd" stroke-width="1"/>
  <text x="400" y="385" font-family="Arial, sans-serif" font-size="18" font-weight="bold" text-anchor="middle" fill="#333">Other Stats</text>
  
  <text x="220" y="415" font-family="Arial, sans-serif" font-size="14" text-anchor="start">Kernels:</text>
  <rect x="300" y="400" width="40" height="20" rx="4" ry="4" fill="#f39c12"/>
  <text x="320" y="415" font-family="Arial, sans-serif" font-size="14" text-anchor="middle" fill="white" font-weight="bold">1</text>
  
  <text x="220" y="445" font-family="Arial, sans-serif" font-size="14" text-anchor="start">Division by 0:</text>
  <rect x="320" y="430" width="40" height="20" rx="4" ry="4" fill="#e74c3c"/>
  <text x="340" y="445" font-family="Arial, sans-serif" font-size="14" text-anchor="middle" fill="white" font-weight="bold">1</text>
  
  <!-- Summary Result -->
  <rect x="250" y="470" width="300" height="30" rx="5" ry="5" fill="#3498db"/>
  <text x="400" y="490" font-family="Arial, sans-serif" font-size="16" font-weight="bold" text-anchor="middle" fill="white">Total Exceptions: 2</text>
  
  <!-- Legend -->
  <rect x="600" y="415" width="20" height="20" rx="4" ry="4" fill="#22aa22"/>
  <text x="625" y="430" font-family="Arial, sans-serif" font-size="12" text-anchor="start">No Issues</text>
  
  <rect x="600" y="445" width="20" height="20" rx="4" ry="4" fill="#e74c3c"/>
  <text x="625" y="460" font-family="Arial, sans-serif" font-size="12" text-anchor="start">Exception Found</text>

  <rect x="600" y="395" width="20" height="20" rx="4" ry="4" fill="#f39c12"/>
  <text x="625" y="410" font-family="Arial, sans-serif" font-size="12" text-anchor="start">Value</text>
</svg>
